<svg width="400" height="400" viewBox="0 0 400 400" fill="none" xmlns="http://www.w3.org/2000/svg">
<rect width="97.9576" height="97.9754" rx="5" transform="matrix(0.9806 -0.196018 0.195944 0.980615 0 303.924)" fill="#1D1C26"/>
<rect width="97.9576" height="97.9754" rx="5" transform="matrix(0.9806 -0.196018 0.195944 0.980615 109.505 282.034)" fill="#1D1C26"/>
<rect width="97.9576" height="97.9754" rx="5" transform="matrix(0.9806 -0.196018 0.195944 0.980615 219.01 260.145)" fill="#1D1C26"/>
<rect width="97.9576" height="97.9754" rx="5" transform="matrix(0.9806 -0.196018 0.195944 0.980615 197.125 150.618)" fill="#1D1C26"/>
<rect width="97.9576" height="97.9754" rx="5" transform="matrix(-0.9806 0.196018 -0.195944 -0.980615 400 96.0762)" fill="#1D1C26"/>
<rect width="97.9576" height="97.9754" rx="5" transform="matrix(-0.9806 0.196018 -0.195944 -0.980615 290.495 117.966)" fill="#1D1C26"/>
<rect width="97.9576" height="97.9754" rx="5" transform="matrix(-0.9806 0.196018 -0.195944 -0.980615 180.989 139.855)" fill="#1D1C26"/>
<rect width="97.9576" height="97.9754" rx="5" transform="matrix(-0.9806 0.196018 -0.195944 -0.980615 202.875 249.382)" fill="#1D1C26"/>
</svg>
