<svg width="401" height="401" viewBox="0 0 401 401" fill="none" xmlns="http://www.w3.org/2000/svg">
<rect width="97.9576" height="97.9754" rx="5" transform="matrix(0.9806 -0.196018 0.195944 0.980615 0.828445 304.792)" fill="#EE5151"/>
<rect width="97.9576" height="97.9754" rx="5" transform="matrix(0.9806 -0.196018 0.195944 0.980615 110.334 282.903)" fill="#EE5151"/>
<rect width="97.9576" height="97.9754" rx="5" transform="matrix(0.9806 -0.196018 0.195944 0.980615 219.839 261.013)" fill="#EE5151"/>
<rect width="97.9576" height="97.9754" rx="5" transform="matrix(0.9806 -0.196018 0.195944 0.980615 197.954 151.486)" fill="#EE5151"/>
<rect width="97.9576" height="97.9754" rx="5" transform="matrix(-0.9806 0.196018 -0.195944 -0.980615 400.828 96.9448)" fill="#C4C4C4"/>
<rect width="97.9576" height="97.9754" rx="5" transform="matrix(-0.9806 0.196018 -0.195944 -0.980615 291.323 118.834)" fill="#C4C4C4"/>
<rect width="97.9576" height="97.9754" rx="5" transform="matrix(-0.9806 0.196018 -0.195944 -0.980615 181.818 140.724)" fill="#C4C4C4"/>
<rect width="97.9576" height="97.9754" rx="5" transform="matrix(-0.9806 0.196018 -0.195944 -0.980615 203.703 250.251)" fill="#C4C4C4"/>
</svg>
